<svg viewBox="0 0 24 24" fill="currentColor" xmlns="http://www.w3.org/2000/svg">
  <path d="M22.282 9.821a5.985 5.985 0 00-.516-4.91 6.046 6.046 0 00-6.51-2.9A6.065 6.065 0 0011.732.4 6.059 6.059 0 005.39 4.517a5.995 5.995 0 00-4 2.9 6.046 6.046 0 00.744 7.096 5.985 5.985 0 00.516 4.91 6.046 6.046 0 006.51 2.9 5.988 5.988 0 004.523 1.68 6.059 6.059 0 006.34-4.117 5.995 5.995 0 004-2.9 6.046 6.046 0 00-.742-7.096zm-2.034 5.508a4.443 4.443 0 01-1.972 1.987l-6.8-3.925v7.825a4.498 4.498 0 01-2.214.145 4.51 4.51 0 01-2.03-1.15l6.8-3.925-6.796-3.925a4.492 4.492 0 01.14-2.217 4.506 4.506 0 011.148-2.03l6.8 3.925V3.294a4.498 4.498 0 012.214-.145 4.51 4.51 0 012.03 1.15l-6.8 3.925 6.796 3.925a4.492 4.492 0 01-.14 2.217 4.506 4.506 0 01-.176.963z" fill="#10A37F"/>
</svg>
